PathFileType	4	(X/Y/Z)	./resultDataOpenSim/trcMotMarkerGrf/sub10/qtm-02-07.trc
DataRate	CameraRate	NumFrames	NumMarkers	Units	OrigDataRate	OrigDataStartFrame	OrigNumFrames
250.000000	250.000000	8	24	m	250.000000	450	514
Frame#	Time	L.Toe.Tip			R.Toe.Tip			L.Ankle.Lat			R.Ankle.Lat			L.Ankle.Med			R.Ankle.Med			L.Heel			R.Heel			L.Knee.Lat			R.Knee.Lat			L.Knee.Med			R.Knee.Med			L.Thigh.Upper			R.Thigh.Upper			L.ASIS			R.ASIS			V.Sacral			L.Acromium			R.Acromium			C7			L.Elbow			R.Elbow			L.Wrist.Lat			R.Wrist.Lat
		X1	Y1	Z1	X2	Y2	Z2	X3	Y3	Z3	X4	Y4	Z4	X5	Y5	Z5	X6	Y6	Z6	X7	Y7	Z7	X8	Y8	Z8	X9	Y9	Z9	X10	Y10	Z10	X11	Y11	Z11	X12	Y12	Z12	X13	Y13	Z13	X14	Y14	Z14	X15	Y15	Z15	X16	Y16	Z16	X17	Y17	Z17	X18	Y18	Z18	X19	Y19	Z19	X20	Y20	Z20	X21	Y21	Z21	X22	Y22	Z22	X23	Y23	Z23	X24	Y24	Z24

450	1.796	1.5832282	0.053321964	-0.12918369	0.80475298	0.038640685	0.055332924	1.4447784	0.065711317	-0.14840188	0.68867528	0.11009718	0.09624643	1.4602848	0.089561811	-0.066750067	0.71460729	0.12317628	0.0106805	1.3860356	0.031180449	-0.099467737	0.6292214	0.10962465	0.051928865	1.3634034	0.44664777	-0.1673276	0.9487018	0.41651632	0.11341037	1.3915781	0.42555722	-0.04856901	0.97466245	0.40962466	-0.012722003	1.2039687	0.79009958	-0.21057783	1.0664848	0.8078141	0.15946968	1.2310569	0.89802576	-0.12382401	1.1685316	0.89087899	0.11881329	0.95961013	0.91076133	-0.043894875	1.1003789	1.3616227	-0.18770238	1.0686648	1.3609099	0.13499907	1.0002779	1.3806971	-0.039270371	0.94482826	1.0642007	-0.26437499	1.100378	0.99817923	0.17581702	0.99967887	0.83310724	-0.31651496	1.342747	0.95528858	0.22781539
451	1.8	1.5845664	0.050151623	-0.12841201	0.80542837	0.03861818	0.0553595	1.4466769	0.065382438	-0.14872956	0.69116717	0.11300738	0.0965474	1.4622441	0.089333367	-0.067005493	0.71755546	0.12549874	0.011048792	1.3869759	0.032070975	-0.10027904	0.63190005	0.11372585	0.052244749	1.3704546	0.44773275	-0.16823693	0.95463107	0.41656139	0.11287124	1.3977807	0.42651605	-0.049065684	0.98051936	0.4094466	-0.013212804	1.2108811	0.79100336	-0.211811	1.0736953	0.80693442	0.15882188	1.2375616	0.89818386	-0.12475156	1.1759044	0.89018356	0.1176925	0.96854183	0.91084036	-0.044626846	1.1064676	1.3614163	-0.18853637	1.0747092	1.3610533	0.1342041	1.0064356	1.3805879	-0.040223404	0.95150444	1.0638495	-0.26543158	1.1059445	0.99802961	0.17444463	1.0063811	0.83268332	-0.31724035	1.3475139	0.95471876	0.22651304
452	1.804	1.5858825	0.047438706	-0.12785828	0.80614879	0.038590098	0.055413962	1.4484583	0.065112422	-0.14887012	0.69387843	0.11590647	0.09668694	1.463735	0.089063882	-0.067052373	0.72076657	0.12782947	0.011396948	1.3878509	0.032821131	-0.10095413	0.63489305	0.11787953	0.052421029	1.3774874	0.44879021	-0.16913445	0.96080155	0.41659708	0.11233201	1.4039451	0.4275186	-0.049540267	0.98660589	0.40927616	-0.013676885	1.217722	0.79204688	-0.21305515	1.0810872	0.80609387	0.15827842	1.2440919	0.89842455	-0.12564756	1.1832619	0.88952908	0.11653238	0.98206699	0.91001857	-0.046922666	1.1125294	1.3612558	-0.18934501	1.0808128	1.3612382	0.13340259	1.0126204	1.3805402	-0.041151448	0.95828614	1.0635018	-0.2664918	1.1117035	0.99790118	0.17323954	1.0132006	0.83229086	-0.31793391	1.3521941	0.95409031	0.22520483
453	1.808	1.5874903	0.045266446	-0.12759032	0.80689148	0.038553675	0.05543425	1.4500639	0.064931106	-0.14883053	0.69687876	0.11886381	0.096741392	1.464709	0.088709258	-0.066890658	0.72426324	0.13015488	0.011720532	1.3886611	0.033427649	-0.10131501	0.63822357	0.12208574	0.052412465	1.3844261	0.44978287	-0.16997573	0.96722771	0.41662277	0.11179625	1.4100618	0.42851552	-0.049984441	0.99292275	0.40908606	-0.014112412	1.2244728	0.79320481	-0.21431311	1.088642	0.80530624	0.15785081	1.2506366	0.89874709	-0.12651158	1.1905747	0.88891267	0.11533572	0.9982286	0.90853465	-0.050395017	1.1185608	1.3611365	-0.1901362	1.0869576	1.3614612	0.13259838	1.0188011	1.3805214	-0.042034496	0.96513357	1.0631438	-0.26753395	1.1174763	0.99781636	0.17213951	1.0201437	0.8319216	-0.31860369	1.3567858	0.95339734	0.22390089
454	1.812	1.5891375	0.043695616	-0.12770971	0.80761386	0.03848925	0.055359472	1.4513826	0.064865782	-0.14864204	0.7001673	0.12194015	0.096805452	1.4653395	0.088292069	-0.06657096	0.72806367	0.13247188	0.012017911	1.3893722	0.03388995	-0.1012882	0.64189092	0.12634492	0.052221154	1.3912327	0.45068783	-0.17072638	0.97390412	0.41662331	0.11127611	1.4161219	0.42948477	-0.050400364	0.99946848	0.40885112	-0.014516414	1.2311204	0.79445504	-0.21557887	1.0962416	0.80451987	0.15747053	1.2571799	0.89916186	-0.12735315	1.1978334	0.88832271	0.11408763	1.0128648	0.90718853	-0.053699641	1.124565	1.3610534	-0.19092429	1.0931348	1.3617265	0.1317854	1.0249514	1.3805168	-0.04286066	0.97198538	1.0627691	-0.26851547	1.1229114	0.99784455	0.17099116	1.0272194	0.83156968	-0.3192502	1.3613077	0.95264019	0.22260455
455	1.816	1.5903786	0.042692877	-0.12809572	0.80831166	0.038382667	0.055192812	1.4523302	0.064907507	-0.14835421	0.70365541	0.1251088	0.09688094	1.4659183	0.087892707	-0.066176729	0.73218543	0.13477589	0.012293902	1.3899422	0.034213738	-0.10098544	0.64588234	0.13065285	0.051886857	1.3979057	0.45149341	-0.17137781	0.98080705	0.41657685	0.11078848	1.42211	0.43041492	-0.050813241	1.0062535	0.40855003	-0.014884756	1.2376639	0.79577684	-0.21684834	1.1038809	0.80363336	0.15702608	1.263702	0.8996855	-0.12818818	1.2050507	0.88774797	0.11277375	1.0237495	0.90650725	-0.055915102	1.1305435	1.361004	-0.19172073	1.0993556	1.3620313	0.13096156	1.0310533	1.3805319	-0.043643101	0.97881469	1.0623785	-0.26942119	1.1276671	0.99805935	0.16963666	1.0344276	0.83123137	-0.31986919	1.3657731	0.95182404	0.22131599
456	1.82	1.5911302	0.042098426	-0.12837524	0.80902631	0.038241927	0.054996137	1.4529093	0.06501688	-0.14803379	0.70724912	0.12830453	0.096906155	1.4665522	0.087594254	-0.06579521	0.73664151	0.13704318	0.012558726	1.3903615	0.034423211	-0.10063202	0.65018644	0.13500003	0.051442227	1.40445	0.4521915	-0.17194167	0.98790967	0.41646831	0.11034659	1.4279958	0.43128754	-0.051262027	1.0132988	0.40815864	-0.015215597	1.2441094	0.79714915	-0.21812342	1.1118441	0.80254012	0.15647538	1.270186	0.90032264	-0.12903816	1.2122432	0.88719103	0.11140584	1.0316203	0.90641755	-0.057081497	1.1364972	1.3609866	-0.19252948	1.1056287	1.3623762	0.13013423	1.0371002	1.3805762	-0.044412431	0.98563532	1.0619772	-0.27027506	1.1317832	0.99843078	0.16807332	1.0417566	0.83090547	-0.32045582	1.3701768	0.95095367	0.22003738
457	1.824	1.5916074	0.041749685	-0.12827546	0.80979211	0.038083293	0.054817227	1.4532053	0.065147965	-0.14774418	0.71095888	0.13149804	0.096836112	1.4671035	0.087431746	-0.065488235	0.74143541	0.13923559	0.012819936	1.3906618	0.034560154	-0.10041347	0.65479995	0.13937008	0.050892567	1.4108249	0.45276845	-0.17242831	0.99519582	0.41629712	0.10994686	1.4337431	0.43208787	-0.051772515	1.0206251	0.40765071	-0.015502869	1.250463	0.79855336	-0.21940732	1.1204391	0.80119104	0.15586022	1.2766263	0.90106363	-0.12992435	1.2194194	0.88666445	0.11000674	1.0378876	0.90663915	-0.057574455	1.142434	1.360999	-0.19334649	1.1119402	1.3627756	0.12930908	1.0430969	1.3806528	-0.045194001	0.99246915	1.0615703	-0.2711067	1.1357113	0.99882206	0.16647258	1.0491964	0.83059425	-0.32100674	1.3745132	0.95002549	0.21876443
